<svg width="36" height="38" viewBox="0 0 36 38" fill="none" xmlns="http://www.w3.org/2000/svg">
<path d="M15.4352 5.96542L2.73015 27.8181C2.46821 28.2855 2.3296 28.8154 2.32814 29.3551C2.32667 29.8948 2.46239 30.4255 2.72179 30.8944C2.9812 31.3633 3.35524 31.754 3.80672 32.0277C4.25819 32.3014 4.77135 32.4486 5.29515 32.4545H30.7052C31.229 32.4486 31.7421 32.3014 32.1936 32.0277C32.6451 31.754 33.0191 31.3633 33.2785 30.8944C33.5379 30.4255 33.6736 29.8948 33.6722 29.3551C33.6707 28.8154 33.5321 28.2855 33.2702 27.8181L20.5652 5.96542C20.2977 5.51122 19.9212 5.13569 19.4719 4.87507C19.0227 4.61445 18.5158 4.47754 18.0002 4.47754C17.4846 4.47754 16.9776 4.61445 16.5284 4.87507C16.0791 5.13569 15.7026 5.51122 15.4352 5.96542Z" stroke="#485173" stroke-width="2" stroke-linecap="round" stroke-linejoin="round"/>
<path d="M18 13.9091V20.0909" stroke="#485173" stroke-width="2" stroke-linecap="round" stroke-linejoin="round"/>
<path d="M18 26.2727H18.0138" stroke="#485173" stroke-width="2" stroke-linecap="round" stroke-linejoin="round"/>
</svg>
