<svg width="30" height="30" viewBox="0 0 30 30" fill="none" xmlns="http://www.w3.org/2000/svg">
<path d="M13.75 5H5C4.33696 5 3.70107 5.26339 3.23223 5.73223C2.76339 6.20107 2.5 6.83696 2.5 7.5V25C2.5 25.663 2.76339 26.2989 3.23223 26.7678C3.70107 27.2366 4.33696 27.5 5 27.5H22.5C23.163 27.5 23.7989 27.2366 24.2678 26.7678C24.7366 26.2989 25 25.663 25 25V16.25" stroke="#485173" stroke-width="2" stroke-linecap="round" stroke-linejoin="round"/>
<path d="M23.8321 3.83215C24.1419 3.5224 24.562 3.34839 25 3.34839C25.438 3.34839 25.8581 3.5224 26.1679 3.83215C26.4776 4.14189 26.6517 4.56199 26.6517 5.00004C26.6517 5.43808 26.4776 5.85819 26.1679 6.16793L14.4888 17.8471L11.3744 18.6257L12.153 15.5113L23.8321 3.83215L23.125 3.12504L23.8321 3.83215Z" stroke="#485173" stroke-width="2" stroke-linecap="round" stroke-linejoin="round"/>
</svg>
