<svg width="36" height="36" viewBox="0 0 36 36" fill="none" xmlns="http://www.w3.org/2000/svg">
<path d="M16.5 6H6C5.20435 6 4.44129 6.31607 3.87868 6.87868C3.31607 7.44129 3 8.20435 3 9V30C3 30.7956 3.31607 31.5587 3.87868 32.1213C4.44129 32.6839 5.20435 33 6 33H27C27.7956 33 28.5587 32.6839 29.1213 32.1213C29.6839 31.5587 30 30.7956 30 30V19.5" stroke="#485173" stroke-width="2" stroke-linecap="round" stroke-linejoin="round"/>
<path d="M28.4571 4.45708C28.8663 4.04788 29.4213 3.81799 30 3.81799C30.5787 3.81799 31.1337 4.04788 31.5429 4.45708C31.9521 4.86628 32.182 5.42128 32.182 5.99997C32.182 6.57867 31.9521 7.13367 31.5429 7.54287L17.4887 21.597L13.3744 22.6256L14.403 18.5112L28.4571 4.45708Z" stroke="#485173" stroke-width="2" stroke-linecap="round" stroke-linejoin="round"/>
</svg>
