<svg width="36" height="38" viewBox="0 0 36 38" fill="none" xmlns="http://www.w3.org/2000/svg">
<path d="M14.545 5.5354L2.38479 26.4511C2.13407 26.8984 2.00142 27.4056 2.00001 27.9221C1.99861 28.4387 2.12851 28.9466 2.37679 29.3954C2.62507 29.8442 2.98307 30.2182 3.41519 30.4801C3.8473 30.7421 4.33846 30.8829 4.8398 30.8886H29.1602C29.6615 30.8829 30.1527 30.7421 30.5848 30.4801C31.0169 30.2182 31.3749 29.8442 31.6232 29.3954C31.8715 28.9466 32.0014 28.4387 32 27.9221C31.9986 27.4056 31.8659 26.8984 31.6152 26.4511L19.455 5.5354C19.1991 5.10068 18.8387 4.74126 18.4087 4.49182C17.9787 4.24237 17.4935 4.11133 17 4.11133C16.5065 4.11133 16.0213 4.24237 15.5913 4.49182C15.1613 4.74126 14.8009 5.10068 14.545 5.5354Z" stroke="#485173" stroke-width="2" stroke-linecap="round" stroke-linejoin="round"/>
<path d="M18 13.9092V20.091" stroke="#485173" stroke-width="2" stroke-linecap="round" stroke-linejoin="round"/>
<path d="M18 26.2727H18.0138" stroke="#485173" stroke-width="2" stroke-linecap="round" stroke-linejoin="round"/>
</svg>
